<?xml version="1.0" encoding="UTF-8" standalone="no"?>
<!-- Created with Inkscape (http://www.inkscape.org/) -->

<svg
   width="210mm"
   height="297mm"
   viewBox="0 0 210 297"
   version="1.1"
   id="svg1"
   inkscape:export-filename="bitmap.png"
   inkscape:export-xdpi="96"
   inkscape:export-ydpi="96"
   inkscape:version="1.4.2 (ebf0e940, 2025-05-08)"
   sodipodi:docname="favicon.svg"
   xmlns:inkscape="http://www.inkscape.org/namespaces/inkscape"
   xmlns:sodipodi="http://sodipodi.sourceforge.net/DTD/sodipodi-0.dtd"
   xmlns="http://www.w3.org/2000/svg"
   xmlns:svg="http://www.w3.org/2000/svg">
  <sodipodi:namedview
     id="namedview1"
     pagecolor="#505050"
     bordercolor="#eeeeee"
     borderopacity="1"
     inkscape:showpageshadow="0"
     inkscape:pageopacity="0"
     inkscape:pagecheckerboard="0"
     inkscape:deskcolor="#505050"
     inkscape:document-units="mm"
     inkscape:zoom="0.84103088"
     inkscape:cx="-11038.834"
     inkscape:cy="-8064.5077"
     inkscape:window-width="1920"
     inkscape:window-height="1022"
     inkscape:window-x="0"
     inkscape:window-y="30"
     inkscape:window-maximized="1"
     inkscape:current-layer="layer1" />
  <defs
     id="defs1">
    <rect
       x="-11444.21"
       y="-8162.9756"
       width="503.31233"
       height="502.01847"
       id="rect16" />
  </defs>
  <g
     inkscape:label="Layer 1"
     inkscape:groupmode="layer"
     id="layer1">
    <rect
       style="fill:#ffffff;stroke-width:0.264999"
       id="rect1"
       width="132.29167"
       height="132.29167"
       x="-3027.1155"
       y="-2158.9614" />
    <path
       style="fill:#ffffff;stroke-width:1.2959"
       d="m -11440.975,-7910.0256 v -249.0684 h 249.715 249.716 v 249.0684 249.0685 h -249.716 -249.715 z"
       id="path2"
       transform="scale(0.26458333)" />
    <path
       style="fill:#ffffff;stroke-width:1.2959"
       d="m -11440.975,-7910.0256 v -249.0684 h 249.715 249.716 v 249.0684 249.0685 h -249.716 -249.715 z"
       id="path3"
       transform="scale(0.26458333)" />
    <path
       style="fill:#ffffff;stroke-width:1.2959"
       d="m -11440.975,-7910.0256 v -249.0684 h 249.715 249.716 v 249.0684 249.0685 h -249.716 -249.715 z"
       id="path4"
       transform="scale(0.26458333)" />
    <path
       style="fill:#ffffff;stroke-width:1.2959"
       d="m -11440.975,-7910.0256 v -249.0684 h 249.715 249.716 v 249.0684 249.0685 h -249.716 -249.715 z"
       id="path5"
       transform="scale(0.26458333)"
       inkscape:highlight-color="#18243e" />
    <path
       style="fill:#ffffff;stroke-width:1.2959"
       d="m -11440.328,-7910.0256 v -249.0684 h 249.715 249.716 v 249.0684 249.0685 h -249.716 -249.715 z"
       id="path6"
       transform="scale(0.26458333)" />
    <path
       style="fill:#ffffff;stroke-width:1.2959"
       d="m -11440.328,-7910.0256 v -249.0684 h 249.715 249.716 v 249.0684 249.0685 h -249.716 -249.715 z"
       id="path7"
       transform="scale(0.26458333)" />
    <path
       style="fill:#ffffff;stroke-width:1.2959"
       d="m -11440.328,-7910.0256 v -249.0684 h 249.715 249.716 v 249.0684 249.0685 h -249.716 -249.715 z"
       id="path8"
       transform="scale(0.26458333)" />
    <path
       style="fill:#ffffff;stroke-width:1.2959"
       d="m -11440.328,-7910.0256 v -249.0684 h 249.715 249.716 v 249.0684 249.0685 h -249.716 -249.715 z"
       id="path9"
       transform="scale(0.26458333)" />
    <path
       style="fill:#ffffff;stroke-width:1.2959"
       d="m -11440.328,-7910.0256 v -249.0684 h 249.715 249.716 v 249.0684 249.0685 h -249.716 -249.715 z"
       id="path10"
       transform="scale(0.26458333)"
       inkscape:highlight-color="#18243e" />
    <path
       style="fill:#ffffff;stroke-width:1.2959"
       d="m -11440.328,-7910.0256 v -249.0684 h 249.715 249.716 v 249.0684 249.0685 h -249.716 -249.715 z"
       id="path11"
       transform="scale(0.26458333)" />
    <path
       style="fill:#ffffff;stroke-width:1.2959"
       d="m -11440.328,-7910.0256 v -249.0684 h 249.715 249.716 v 249.0684 249.0685 h -249.716 -249.715 z"
       id="path12"
       transform="scale(0.26458333)" />
    <path
       style="fill:#ffffff;stroke-width:1.2959"
       d="m -11440.328,-7910.0256 v -249.0684 h 249.715 249.716 v 249.0684 249.0685 h -249.716 -249.715 z"
       id="path13"
       transform="scale(0.26458333)" />
    <path
       style="fill:#ffffff;stroke-width:1.2959"
       d="m -11440.328,-7910.0256 v -249.0684 h 249.715 249.716 v 249.0684 249.0685 h -249.716 -249.715 z"
       id="path14"
       transform="scale(0.26458333)" />
    <path
       style="fill:#ffffff;stroke-width:1.2959"
       d="m -11440.328,-7910.0256 v -249.0684 h 249.715 249.716 v 249.0684 249.0685 h -249.716 -249.715 z"
       id="path15"
       transform="scale(0.26458333)" />
    <path
       style="fill:#18243e;stroke-width:1.2959;fill-opacity:1"
       d="m -11440.328,-7910.0256 v -249.0684 h 249.715 249.716 v 249.0684 249.0685 h -249.716 -249.715 z"
       id="path16"
       transform="scale(0.26458333)" />
    <text
       xml:space="preserve"
       transform="matrix(0.48408957,0,0,0.53642958,2455.0481,2174.4036)"
       id="text16"
       style="font-size:192px;text-align:center;writing-mode:lr-tb;direction:ltr;white-space:pre;shape-inside:url(#rect16);shape-padding:105.823;fill:#00ffff;fill-opacity:1;stroke-width:1.00157"><tspan
         x="-11332.148"
         y="-7881.9869"
         id="tspan1">DS</tspan></text>
  </g>
</svg>
